<svg width="783" height="734" viewBox="0 0 783 734" fill="none" xmlns="http://www.w3.org/2000/svg">
<path d="M385.955 734C173.167 734 0 560.65 0 347.561C0 200.003 82.0894 67.4407 214.136 1.60955C220.053 -1.31462 227.244 -0.189938 231.887 4.45873C236.531 9.1074 237.804 16.3053 234.883 22.2286C210.766 71.2646 198.557 123.975 198.557 178.859C198.557 374.853 357.868 534.332 553.654 534.332C609.079 534.332 662.257 521.811 711.691 497.218C717.608 494.294 724.798 495.418 729.442 500.067C734.161 504.791 735.359 511.914 732.363 517.837C666.976 651.149 534.255 734 385.955 734Z" fill="url(#paint0_linear_183_133)"/>
<path d="M473 34H773" stroke="white" stroke-width="20" stroke-linecap="round" stroke-linejoin="round"/>
<path d="M417 34H417.2" stroke="white" stroke-width="20" stroke-linecap="round" stroke-linejoin="round"/>
<path d="M473 109H773" stroke="white" stroke-width="20" stroke-linecap="round" stroke-linejoin="round"/>
<path d="M417 109H417.2" stroke="white" stroke-width="20" stroke-linecap="round" stroke-linejoin="round"/>
<path d="M473 184H773" stroke="white" stroke-width="20" stroke-linecap="round" stroke-linejoin="round"/>
<path d="M417 184H417.2" stroke="white" stroke-width="20" stroke-linecap="round" stroke-linejoin="round"/>
<path d="M473 259H773" stroke="white" stroke-width="20" stroke-linecap="round" stroke-linejoin="round"/>
<path d="M417 259H417.2" stroke="white" stroke-width="20" stroke-linecap="round" stroke-linejoin="round"/>
<path d="M473 334H773" stroke="white" stroke-width="20" stroke-linecap="round" stroke-linejoin="round"/>
<path d="M417 334H417.2" stroke="white" stroke-width="20" stroke-linecap="round" stroke-linejoin="round"/>
<defs>
<linearGradient id="paint0_linear_183_133" x1="343" y1="377.5" x2="-142.5" y2="710.5" gradientUnits="userSpaceOnUse">
<stop stop-color="white"/>
<stop offset="1" stop-color="white" stop-opacity="0"/>
</linearGradient>
</defs>
</svg>
